<svg xmlns="http://www.w3.org/2000/svg" width="18.027" height="15.819" viewBox="0 0 18.027 15.819">
  <g id="ICON" transform="translate(0.101 0.102)">
    <path id="Trazado_74" data-name="Trazado 74" d="M175.807,159.668a1.818,1.818,0,1,0,1.818,1.818A1.818,1.818,0,0,0,175.807,159.668Zm0,2.77a.952.952,0,1,1,0-1.9h0a.952.952,0,0,1,0,1.9Z" transform="translate(-166.783 -154.156)" fill="#666" stroke="#666" stroke-width="0.2"/>
    <path id="Trazado_75" data-name="Trazado 75" d="M16.272,27.933,4.458,26.592a1.623,1.623,0,0,0-1.277.368,1.644,1.644,0,0,0-.627,1.125l-.216,1.774H1.667A1.739,1.739,0,0,0,0,31.655V40.5a1.644,1.644,0,0,0,1.6,1.687H13.546A1.776,1.776,0,0,0,15.363,40.5v-.346a2.164,2.164,0,0,0,.822-.346,1.8,1.8,0,0,0,.627-1.168l1-8.785A1.753,1.753,0,0,0,16.272,27.933ZM14.5,40.5a.911.911,0,0,1-.952.822H1.667a.779.779,0,0,1-.8-.756q0-.033,0-.066V38.9L4.22,36.437a1.039,1.039,0,0,1,1.342.065L7.92,38.579a2.034,2.034,0,0,0,1.277.476,1.969,1.969,0,0,0,1.039-.281L14.5,36.307v4.2Zm0-5.215L9.781,38.038A1.1,1.1,0,0,1,8.5,37.93l-2.38-2.1a1.926,1.926,0,0,0-2.4-.087L.866,37.822V31.655a.873.873,0,0,1,.8-.93H13.546a1,1,0,0,1,.952.93V35.29Zm2.446-5.548v.009l-1.017,8.785a.736.736,0,0,1-.281.584c-.087.087-.281.13-.281.173V31.655a1.861,1.861,0,0,0-1.818-1.8H3.2L3.4,28.171a1,1,0,0,1,.325-.563,1,1,0,0,1,.649-.173L16.164,28.8A.866.866,0,0,1,16.943,29.742Z" transform="translate(0 -26.576)" fill="#666" stroke="#666" stroke-width="0.2"/>
  </g>
</svg>
